<svg id="visual" viewBox="0 0 960 540" width="960" height="540" xmlns="http://www.w3.org/2000/svg" xmlns:xlink="http://www.w3.org/1999/xlink" version="1.1"><path d="M0 422L22.8 401.8C45.7 381.7 91.3 341.3 137 336C182.7 330.7 228.3 360.3 274 376C319.7 391.7 365.3 393.3 411.2 373.5C457 353.7 503 312.3 548.8 311.2C594.7 310 640.3 349 686 357.3C731.7 365.7 777.3 343.3 823 335.8C868.7 328.3 914.3 335.7 937.2 339.3L960 343L960 0L937.2 0C914.3 0 868.7 0 823 0C777.3 0 731.7 0 686 0C640.3 0 594.7 0 548.8 0C503 0 457 0 411.2 0C365.3 0 319.7 0 274 0C228.3 0 182.7 0 137 0C91.3 0 45.7 0 22.8 0L0 0Z" fill="#4facf6"></path><path d="M0 249L22.8 251.5C45.7 254 91.3 259 137 276.7C182.7 294.3 228.3 324.7 274 313.2C319.7 301.7 365.3 248.3 411.2 232.5C457 216.7 503 238.3 548.8 239.8C594.7 241.3 640.3 222.7 686 224.2C731.7 225.7 777.3 247.3 823 258C868.7 268.7 914.3 268.3 937.2 268.2L960 268L960 0L937.2 0C914.3 0 868.7 0 823 0C777.3 0 731.7 0 686 0C640.3 0 594.7 0 548.8 0C503 0 457 0 411.2 0C365.3 0 319.7 0 274 0C228.3 0 182.7 0 137 0C91.3 0 45.7 0 22.8 0L0 0Z" fill="#1996fd"></path><path d="M0 228L22.8 233.2C45.7 238.3 91.3 248.7 137 250.5C182.7 252.3 228.3 245.7 274 232.7C319.7 219.7 365.3 200.3 411.2 186.3C457 172.3 503 163.7 548.8 177.7C594.7 191.7 640.3 228.3 686 229.5C731.7 230.7 777.3 196.3 823 198.7C868.7 201 914.3 240 937.2 259.5L960 279L960 0L937.2 0C914.3 0 868.7 0 823 0C777.3 0 731.7 0 686 0C640.3 0 594.7 0 548.8 0C503 0 457 0 411.2 0C365.3 0 319.7 0 274 0C228.3 0 182.7 0 137 0C91.3 0 45.7 0 22.8 0L0 0Z" fill="#007dff"></path><path d="M0 151L22.8 145.2C45.7 139.3 91.3 127.7 137 131.7C182.7 135.7 228.3 155.3 274 155.8C319.7 156.3 365.3 137.7 411.2 126.8C457 116 503 113 548.8 128.2C594.7 143.3 640.3 176.7 686 178.5C731.7 180.3 777.3 150.7 823 131.8C868.7 113 914.3 105 937.2 101L960 97L960 0L937.2 0C914.3 0 868.7 0 823 0C777.3 0 731.7 0 686 0C640.3 0 594.7 0 548.8 0C503 0 457 0 411.2 0C365.3 0 319.7 0 274 0C228.3 0 182.7 0 137 0C91.3 0 45.7 0 22.8 0L0 0Z" fill="#005fff"></path><path d="M0 89L22.8 94C45.7 99 91.3 109 137 103.2C182.7 97.3 228.3 75.7 274 73.5C319.7 71.3 365.3 88.7 411.2 89.2C457 89.7 503 73.3 548.8 77C594.7 80.7 640.3 104.3 686 111.2C731.7 118 777.3 108 823 97.3C868.7 86.7 914.3 75.3 937.2 69.7L960 64L960 0L937.2 0C914.3 0 868.7 0 823 0C777.3 0 731.7 0 686 0C640.3 0 594.7 0 548.8 0C503 0 457 0 411.2 0C365.3 0 319.7 0 274 0C228.3 0 182.7 0 137 0C91.3 0 45.7 0 22.8 0L0 0Z" fill="#0036ff"></path></svg>