<svg width="480" height="879" viewBox="0 0 480 879" fill="none" xmlns="http://www.w3.org/2000/svg">
<path d="M0 0C60.5384 18.2184 120.948 36.4369 174.531 60.5322C227.985 84.7451 274.612 114.952 323.301 149.979C371.989 184.888 422.738 224.733 450.56 274.687C478.253 324.641 475.234 384.82 480 445H0V0Z" fill="#FFBB00"/>
<path d="M480 445C480 500.778 440.697 552.64 414.707 600.328C388.59 647.9 356.006 689.397 318.225 732.728C280.571 776.06 237.591 821.225 183.708 845.986C129.826 870.632 64.9128 874.759 2.81556e-06 879L2.44379e-05 445L480 445Z" fill="#FFBB00"/>
</svg>
