<svg width="389" height="767" viewBox="0 0 389 767" fill="none" xmlns="http://www.w3.org/2000/svg">
<path d="M389 767C345.048 734.527 301.096 702.054 269.297 672.818C237.396 643.582 217.547 617.482 174.911 597.857C132.276 578.231 66.7525 565.181 34.7506 530.584C2.74861 495.987 -5.99988 439 5.5842 384H389V767Z" fill="#5D93DB"/>
<path d="M5.00014 384C21.0001 331 19.9216 310.184 34.1212 258.536C59.4778 196.76 62.5206 179.544 99.428 140.047C142.96 93.4623 207.346 61.7524 242.033 29.7504C276.721 -2.25155 332.81 -0.833757 389 0.584054L389 384L5.00014 384Z" fill="#5D93DB"/>
</svg>
