<svg id="visual" viewBox="0 0 900 600" width="900" height="600" xmlns="http://www.w3.org/2000/svg" xmlns:xlink="http://www.w3.org/1999/xlink" version="1.1"><path d="M0 279L18.8 276.5C37.7 274 75.3 269 112.8 279.5C150.3 290 187.7 316 225.2 323.7C262.7 331.3 300.3 320.7 337.8 311.7C375.3 302.7 412.7 295.3 450.2 298.7C487.7 302 525.3 316 562.8 328.7C600.3 341.3 637.7 352.7 675.2 344.3C712.7 336 750.3 308 787.8 287.8C825.3 267.7 862.7 255.3 881.3 249.2L900 243L900 601L881.3 601C862.7 601 825.3 601 787.8 601C750.3 601 712.7 601 675.2 601C637.7 601 600.3 601 562.8 601C525.3 601 487.7 601 450.2 601C412.7 601 375.3 601 337.8 601C300.3 601 262.7 601 225.2 601C187.7 601 150.3 601 112.8 601C75.3 601 37.7 601 18.8 601L0 601Z" fill="#ffbb00"></path><path d="M0 406L18.8 393.3C37.7 380.7 75.3 355.3 112.8 354C150.3 352.7 187.7 375.3 225.2 380.5C262.7 385.7 300.3 373.3 337.8 367.8C375.3 362.3 412.7 363.7 450.2 359.7C487.7 355.7 525.3 346.3 562.8 354.8C600.3 363.3 637.7 389.7 675.2 385.2C712.7 380.7 750.3 345.3 787.8 326.8C825.3 308.3 862.7 306.7 881.3 305.8L900 305L900 601L881.3 601C862.7 601 825.3 601 787.8 601C750.3 601 712.7 601 675.2 601C637.7 601 600.3 601 562.8 601C525.3 601 487.7 601 450.2 601C412.7 601 375.3 601 337.8 601C300.3 601 262.7 601 225.2 601C187.7 601 150.3 601 112.8 601C75.3 601 37.7 601 18.8 601L0 601Z" fill="#ffa100"></path><path d="M0 425L18.8 422.5C37.7 420 75.3 415 112.8 414C150.3 413 187.7 416 225.2 410C262.7 404 300.3 389 337.8 392.8C375.3 396.7 412.7 419.3 450.2 433.8C487.7 448.3 525.3 454.7 562.8 450.5C600.3 446.3 637.7 431.7 675.2 428.7C712.7 425.7 750.3 434.3 787.8 438.2C825.3 442 862.7 441 881.3 440.5L900 440L900 601L881.3 601C862.7 601 825.3 601 787.8 601C750.3 601 712.7 601 675.2 601C637.7 601 600.3 601 562.8 601C525.3 601 487.7 601 450.2 601C412.7 601 375.3 601 337.8 601C300.3 601 262.7 601 225.2 601C187.7 601 150.3 601 112.8 601C75.3 601 37.7 601 18.8 601L0 601Z" fill="#ff8500"></path><path d="M0 506L18.8 494.2C37.7 482.3 75.3 458.7 112.8 449.5C150.3 440.3 187.7 445.7 225.2 452.8C262.7 460 300.3 469 337.8 467.8C375.3 466.7 412.7 455.3 450.2 452C487.7 448.7 525.3 453.3 562.8 461C600.3 468.7 637.7 479.3 675.2 480.7C712.7 482 750.3 474 787.8 468.5C825.3 463 862.7 460 881.3 458.5L900 457L900 601L881.3 601C862.7 601 825.3 601 787.8 601C750.3 601 712.7 601 675.2 601C637.7 601 600.3 601 562.8 601C525.3 601 487.7 601 450.2 601C412.7 601 375.3 601 337.8 601C300.3 601 262.7 601 225.2 601C187.7 601 150.3 601 112.8 601C75.3 601 37.7 601 18.8 601L0 601Z" fill="#ff6600"></path><path d="M0 533L18.8 529.8C37.7 526.7 75.3 520.3 112.8 525.3C150.3 530.3 187.7 546.7 225.2 546.7C262.7 546.7 300.3 530.3 337.8 528.3C375.3 526.3 412.7 538.7 450.2 543.3C487.7 548 525.3 545 562.8 536.2C600.3 527.3 637.7 512.7 675.2 504.8C712.7 497 750.3 496 787.8 500.2C825.3 504.3 862.7 513.7 881.3 518.3L900 523L900 601L881.3 601C862.7 601 825.3 601 787.8 601C750.3 601 712.7 601 675.2 601C637.7 601 600.3 601 562.8 601C525.3 601 487.7 601 450.2 601C412.7 601 375.3 601 337.8 601C300.3 601 262.7 601 225.2 601C187.7 601 150.3 601 112.8 601C75.3 601 37.7 601 18.8 601L0 601Z" fill="#ff3e00"></path></svg>